<?xml version="1.0" encoding="UTF-8" standalone="no" ?>
<!DOCTYPE svg PUBLIC "-//W3C//DTD SVG 1.1//EN" "http://www.w3.org/Graphics/SVG/1.1/DTD/svg11.dtd">
<svg xmlns="http://www.w3.org/2000/svg" xmlns:xlink="http://www.w3.org/1999/xlink" version="1.1" width="640" height="480" viewBox="0 0 640 480" xml:space="preserve">
<desc>Created with Fabric.js 3.6.3</desc>
<defs>
</defs>
<g transform="matrix(1.79 0 0 1.79 329.85 199.75)"  >
<g style=""   >
		<g transform="matrix(0.5 0 0 0.5 -98.28 108.08)" id="SvgjsG1008"  >
<path style="stroke: none; stroke-width: 1; stroke-dasharray: none; stroke-linecap: butt; stroke-dashoffset: 0; stroke-linejoin: miter; stroke-miterlimit: 4; fill: rgb(182,193,190); fill-rule: nonzero; opacity: 1;"  transform=" translate(-403.28, -624.85)" d="M 481.17233 691.60038 c 9.25458 -7.82 14.87595 -20.17341 13.40175 -32.19951 s -10.605 -23.08177 -22.44888 -25.63556 s -25.34517 4.51552 -28.94256 16.08527 c -1.97981 -22.306 -4.26119 -45.54663 -16.12049 -64.54228 c -10.73831 -17.2001 -29.33726 -29.50744 -49.49431 -31.70921 s -41.37985 6.11408 -53.95107 22.0238 s -15.64923 39.03914 -6.84467 57.3048 c 6.486 13.45569 18.43551 23.46957 30.95562 31.61638 a 199.78578 199.78578 0 0 0 136.64075 29.89252" stroke-linecap="round" />
</g>
		<g transform="matrix(0.5 0 0 0.5 -104.72 108.94)" id="SvgjsG1008"  >
<path style="stroke: none; stroke-width: 1; stroke-dasharray: none; stroke-linecap: butt; stroke-dashoffset: 0; stroke-linejoin: miter; stroke-miterlimit: 4; fill: rgb(255,255,255); fill-rule: nonzero; opacity: 1;"  transform=" translate(-390.39, -626.57)" d="M 343.54974 560.17414 A 326.87926 326.87926 0 0 1 389.10355 605.409 a 327.83254 327.83254 0 0 1 51.30832 85.74145 c 0.92389 2.264 -2.75246 3.24952 -3.66608 1.0107 a 324.46215 324.46215 0 0 0 -29.64717 -56.09367 a 325.69973 325.69973 0 0 0 -66.23723 -73.20495 c -1.898 -1.54556 0.806 -4.22115 2.68835 -2.68834 Z" stroke-linecap="round" />
</g>
		<g transform="matrix(0.5 0 0 0.5 -17.26 108.08)" id="SvgjsG1008"  >
<path style="stroke: none; stroke-width: 1; stroke-dasharray: none; stroke-linecap: butt; stroke-dashoffset: 0; stroke-linejoin: miter; stroke-miterlimit: 4; fill: rgb(182,193,190); fill-rule: nonzero; opacity: 1;"  transform=" translate(-565.46, -624.85)" d="M 487.56461 691.60038 c -9.25458 -7.82 -14.87595 -20.17341 -13.40175 -32.19951 s 10.605 -23.08177 22.44888 -25.63556 s 25.34518 4.51552 28.94256 16.08527 c 1.97982 -22.306 4.26119 -45.54663 16.1205 -64.54228 c 10.7383 -17.2001 29.33725 -29.50744 49.49431 -31.70921 s 41.37984 6.11408 53.95106 22.0238 s 15.64923 39.03914 6.84468 57.3048 c -6.486 13.45569 -18.43552 23.46957 -30.95563 31.61638 a 199.78578 199.78578 0 0 1 -136.64075 29.89252" stroke-linecap="round" />
</g>
		<g transform="matrix(0.5 0 0 0.5 -10.82 108.94)" id="SvgjsG1008"  >
<path style="stroke: none; stroke-width: 1; stroke-dasharray: none; stroke-linecap: butt; stroke-dashoffset: 0; stroke-linejoin: miter; stroke-miterlimit: 4; fill: rgb(255,255,255); fill-rule: nonzero; opacity: 1;"  transform=" translate(-578.35, -626.57)" d="M 625.18721 560.17414 A 326.87878 326.87878 0 0 0 579.63339 605.409 a 327.83254 327.83254 0 0 0 -51.30832 85.74145 c -0.92389 2.264 2.75246 3.24952 3.66608 1.0107 a 325.98749 325.98749 0 0 1 95.8844 -129.29862 c 1.898 -1.54556 -0.806 -4.22115 -2.68834 -2.68834 Z" stroke-linecap="round" />
</g>
		<g transform="matrix(0.5 0 0 0.5 -42.45 -7.12)" id="SvgjsG1008"  >
<circle style="stroke: none; stroke-width: 1; stroke-dasharray: none; stroke-linecap: butt; stroke-dashoffset: 0; stroke-linejoin: miter; stroke-miterlimit: 4; fill: rgb(182,193,190); fill-rule: nonzero; opacity: 1;"  cx="0" cy="0" r="31" />
</g>
		<g transform="matrix(0.5 0 0 0.5 -57.69 -3.59)" id="SvgjsG1008"  >
<path style="stroke: none; stroke-width: 1; stroke-dasharray: none; stroke-linecap: butt; stroke-dashoffset: 0; stroke-linejoin: miter; stroke-miterlimit: 4; fill: rgb(182,193,190); fill-rule: nonzero; opacity: 1;"  transform=" translate(-484.53, -401.32)" d="M 419.4457 287.3877 H 633.02714 V 299.073 H 446.71128 a 83.41834 83.41834 0 0 0 -83.41857 83.41839 V 515.25 H 339.92222 a 3.89516 3.89516 0 0 1 -3.89508 -3.89508 V 370.80609 A 83.41833 83.41833 0 0 1 419.4457 287.3877 Z" stroke-linecap="round" />
</g>
		<g transform="matrix(0.5 0 0 0.5 -56.69 98.54)" id="SvgjsG1008"  >
<path style="stroke: none; stroke-width: 1; stroke-dasharray: none; stroke-linecap: butt; stroke-dashoffset: 0; stroke-linejoin: miter; stroke-miterlimit: 4; fill: rgb(63,61,86); fill-rule: nonzero; opacity: 1;"  transform=" translate(-486.53, -605.75)" d="M 460.52714 692.25 V 514.75 h 52 v 177.5 a 4.50508 4.50508 0 0 1 -4.5 4.5 h -43 A 4.50508 4.50508 0 0 1 460.52714 692.25 Z" stroke-linecap="round" />
</g>
		<g transform="matrix(0.5 0 0 0.5 -60.68 -5.12)" id="SvgjsG1008"  >
<path style="stroke: none; stroke-width: 1; stroke-dasharray: none; stroke-linecap: butt; stroke-dashoffset: 0; stroke-linejoin: miter; stroke-miterlimit: 4; fill: rgb(63,61,86); fill-rule: nonzero; opacity: 1;"  transform=" translate(-478.53, -398.25)" d="M 325.02714 511.25 V 366.91553 A 86.76355 86.76355 0 0 1 411.69242 280.25 H 632.02714 v 236 h -302 A 5.00573 5.00573 0 0 1 325.02714 511.25 Z m 305 -229 H 411.69242 a 84.76141 84.76141 0 0 0 -84.66528 84.66553 V 511.25 a 3.00328 3.00328 0 0 0 3 3 h 300 Z" stroke-linecap="round" />
</g>
		<g transform="matrix(0.5 0 0 0.5 -61.93 -50.83)" id="SvgjsG1008"  >
<path style="stroke: none; stroke-width: 1; stroke-dasharray: none; stroke-linecap: butt; stroke-dashoffset: 0; stroke-linejoin: miter; stroke-miterlimit: 4; fill: rgb(4,159,159); fill-rule: nonzero; opacity: 1;"  transform=" translate(-476.03, -306.75)" d="M 515.02714 410.25 a 18.02031 18.02031 0 0 1 -18 -18 v -129 a 3.00328 3.00328 0 0 0 -3 -3 h -70 a 5.0058 5.0058 0 0 1 -5 -5 v -47 a 5.0058 5.0058 0 0 1 5 -5 h 104 a 5.00573 5.00573 0 0 1 5 5 v 184 A 18.02031 18.02031 0 0 1 515.02714 410.25 Z" stroke-linecap="round" />
</g>
		<g transform="matrix(0.5 0 0 0.5 52.22 -5.62)" id="SvgjsG1008"  >
<path style="stroke: none; stroke-width: 1; stroke-dasharray: none; stroke-linecap: butt; stroke-dashoffset: 0; stroke-linejoin: miter; stroke-miterlimit: 4; fill: rgb(63,61,86); fill-rule: nonzero; opacity: 1;"  transform=" translate(-704.53, -397.25)" d="M 640.02714 278.25 h 0 a 56.88093 56.88093 0 0 1 57 56.76144 V 499.32108 h 112 a 16.96465 16.96465 0 0 1 17 16.92887 h -243 V 335.01143 A 56.88093 56.88093 0 0 1 640.02714 278.25 Z" stroke-linecap="round" />
</g>
		<g transform="matrix(0.5 0 0 0.5 73.76 -38.17)" id="SvgjsG1008"  >
<path style="stroke: none; stroke-width: 1; stroke-dasharray: none; stroke-linecap: butt; stroke-dashoffset: 0; stroke-linejoin: miter; stroke-miterlimit: 4; fill: rgb(255,255,255); fill-rule: nonzero; opacity: 1;"  transform=" translate(-747.64, -332.1)" d="M 626.34909 371.81749 l 11.80284 48.75606 L 869.03313 364.682 l -11.80284 -48.75606 a 3.6384 3.6384 0 0 0 -2.35767 -2.59508 a 3.59409 3.59409 0 0 0 -1.33406 -0.20075 L 720.07937 244.02819 a 3.682 3.682 0 0 0 -4.65628 1.11925 l -64.31987 89.69375 L 626.85528 368.664 a 0.51379 0.51379 0 0 0 -0.089 0.41825 A 3.64176 3.64176 0 0 0 626.34909 371.81749 Z" stroke-linecap="round" />
</g>
		<g transform="matrix(0.5 0 0 0.5 70.12 -50.93)" id="SvgjsG1008"  >
<path style="stroke: none; stroke-width: 1; stroke-dasharray: none; stroke-linecap: butt; stroke-dashoffset: 0; stroke-linejoin: miter; stroke-miterlimit: 4; fill: rgb(63,61,86); fill-rule: nonzero; opacity: 1;"  transform=" translate(-740.37, -306.56)" d="M 626.7663 369.08226 a 0.48973 0.48973 0 0 0 0.20314 0.31583 a 0.55943 0.55943 0 0 0 0.43331 0.08552 a 0.53586 0.53586 0 0 0 0.29889 -0.20727 l 0.08326 -0.11537 l 1.26254 -1.76554 l 22.92889 -31.96427 l 64.30082 -89.6732 a 2.6198 2.6198 0 0 1 3.32194 -0.79624 l 132.42537 68.56666 l 1.18838 0.6168 a 1.29216 1.29216 0 0 0 0.14733 0.05165 a 1.61549 1.61549 0 0 1 0.27147 -0.026 a 0.51364 0.51364 0 0 0 0.28983 -0.24474 a 0.524 0.524 0 0 0 -0.21883 -0.7087 l -0.16408 -0.08726 L 720.07937 244.02819 a 3.682 3.682 0 0 0 -4.65628 1.11925 l -64.31987 89.69375 L 626.85528 368.664 A 0.51379 0.51379 0 0 0 626.7663 369.08226 Z" stroke-linecap="round" />
</g>
		<g transform="matrix(0.5 0 0 0.5 83.59 -52.69)" id="SvgjsG1008"  >
<path style="stroke: none; stroke-width: 1; stroke-dasharray: none; stroke-linecap: butt; stroke-dashoffset: 0; stroke-linejoin: miter; stroke-miterlimit: 4; fill: rgb(230,230,230); fill-rule: nonzero; opacity: 1;"  transform=" translate(-767.33, -303.03)" d="M 696.10724 374.05386 l 5.13934 0.57012 l 38.14252 4.22535 l 25.28583 2.79936 l 1.49358 0.166 l 31.55217 -24.64477 l 1.20883 -0.944 l 7.45235 -5.82019 l 26.5135 -20.70629 l 0.15919 -1.45441 l 9.43044 -85.11413 a 4.4539 4.4539 0 0 0 -3.92912 -4.91152 L 712.7 224.27763 a 4.456 4.456 0 0 0 -4.91157 3.9292 L 701.138 288.24439 l -3.689 33.28581 L 694.149 351.30867 l -1.52976 13.82919 l -0.44637 4.00573 A 4.45691 4.45691 0 0 0 696.10724 374.05386 Z" stroke-linecap="round" />
</g>
		<g transform="matrix(0.5 0 0 0.5 81.17 -50.48)" id="SvgjsG1008"  >
<path style="stroke: none; stroke-width: 1; stroke-dasharray: none; stroke-linecap: butt; stroke-dashoffset: 0; stroke-linejoin: miter; stroke-miterlimit: 4; fill: rgb(255,255,255); fill-rule: nonzero; opacity: 1;"  transform=" translate(-762.48, -307.46)" d="M 730.69234 299.44776 l 54.51668 6.03806 l 19.33354 2.14069 a 6.53968 6.53968 0 101.43979 -12.99988 l -24.04683 -2.66322 l -49.79941 -5.52188 a 6.54306 6.54306 0 0 -1.44377 13.00623 z M 727.58833 323.56377 c 0.14068 0.02515 0.28136 0.05031 0.42455 0.06411 l 63.28515 7.0109 l 10.5663 1.17291 a 6.54214 6.54214 0 1.43855 -13.005 l -15.27834 -1.69033 l -50.13045 -5.5548 l -8.43621 -0.93485 a 6.53913 6.53913 0 0 -1.86955 12.937 z M 720.42587 344.94759 a 6.53866 6.53866 0 4.88047 3.12537 l 25.9387 2.87281 l 46.19708 5.118 l 0.01018 -0.00247 l 1.47721 0.16462 l 7.45235 -5.82019 a 6.47057 6.47057 0 0.0011 -1.33 6.5548 6.5548 a 0 0 -5.78686 -5.82386 l -6.41729 -0.713 l -25.457 -2.81712 l -18.31689 -2.0315 l -23.66022 -2.62223 a 6.54 6.54 0 0 -6.31878 9.87953 z M 756.8588 269.96954 l 13.5644 1.50232 l 5.99124 0.66537 l 9.05013 1.00159 a 6.54214 6.54214 0 1.43855 -13.005 l -28.59932 -3.16545 a 6.54059 6.54059 0 10 -1.445 13.00113 z" stroke-linecap="round" />
</g>
		<g transform="matrix(0.5 0 0 0.5 60.83 -38.61)" id="SvgjsG1008"  >
<path style="stroke: none; stroke-width: 1; stroke-dasharray: none; stroke-linecap: butt; stroke-dashoffset: 0; stroke-linejoin: miter; stroke-miterlimit: 4; fill: rgb(4,159,159); fill-rule: nonzero; opacity: 1;"  transform=" translate(-721.77, -331.22)" d="M 645.9437 306.1818 l 16.53736 68.3138 l 27.60123 5.24823 l 25.532 4.86089 l 27.39356 5.21238 l 8.753 1.6657 a 3.6733 3.6733 0 0 0 2.93957 -0.71161 l 7.02206 -5.48451 l 4.44605 -3.472 l 31.55217 -24.64477 l -20.062 -82.87362 a 4.40272 4.40272 0 0 0 -1.24424 -2.15908 a 4.44864 4.44864 0 0 0 -4.12489 -1.11718 L 649.22 300.81267 A 4.45037 4.45037 0 0 0 645.9437 306.1818 Z" stroke-linecap="round" />
</g>
		<g transform="matrix(0.5 0 0 0.5 63.34 -25.38)" id="SvgjsG1008"  >
<path style="stroke: none; stroke-width: 1; stroke-dasharray: none; stroke-linecap: butt; stroke-dashoffset: 0; stroke-linejoin: miter; stroke-miterlimit: 4; fill: rgb(255,255,255); fill-rule: nonzero; opacity: 1;"  transform=" translate(-726.78, -357.69)" d="M 683.86407 360.52788 a 6.54613 6.54613 0 7.89577 4.818 l 72.2144 -17.48162 a 6.54974 6.54974 0 4.818 -7.89578 2.09959 2.09959 a 0 0 -0.0705 -0.24672 6.53879 6.53879 0 a 0 -7.82527 -4.5713 l -72.2144 17.48161 A 6.54613 6.54613 0 683.86407 360.52788 z M 690.08229 379.74383 l 25.532 4.86089 L 769.69885 371.512 a 6.54051 6.54051 0 10 -3.07775 -12.7138 l -72.21439 17.48162 a 6.49388 6.49388 0 0 -3.74749 2.51147 A 6.5835 6.5835 0 690.08229 379.74383 z M 743.00785 389.8171 l 8.753 1.6657 a 3.6733 3.6733 0 2.93957 -0.71161 l 7.02206 -5.48451 z M 698.41482 323.89664 a 6.54611 6.54611 0 7.89577 4.818 l 27.97037 -6.77105 a 6.54973 6.54973 0 4.818 -7.89577 6.46594 6.46594 a 0 0 -1.20489 -2.48625 6.5454 6.5454 0 a 0 -6.69088 -2.33178 l -27.97037 6.77105 a 6.54142 6.54142 0 0 -4.818 7.89577 z" stroke-linecap="round" />
</g>
		<g transform="matrix(0.5 0 0 0.5 78.56 -0.39)" id="SvgjsG1008"  >
<path style="stroke: none; stroke-width: 1; stroke-dasharray: none; stroke-linecap: butt; stroke-dashoffset: 0; stroke-linejoin: miter; stroke-miterlimit: 4; fill: rgb(255,255,255); fill-rule: nonzero; opacity: 1;"  transform=" translate(-757.25, -407.73)" d="M 715.61222 384.60434 l 27.398 5.21358 l 8.75042 1.66643 a 3.68877 3.68877 0 0 0 2.938 -0.71124 l 7.02714 -5.48585 l -2.46594 0.59695 l -5.20559 4.061 a 2.63556 2.63556 0 0 1 -2.09887 0.5081 l -6.47926 -1.23238 l -27.398 -5.21357 Z m 81.83767 -28.539 l 0.26672 1.10181 l 1.21521 -0.9448 Z m -81.83767 28.539 l 27.398 5.21358 l 8.75042 1.66643 a 3.68877 3.68877 0 0 0 2.938 -0.71124 l 7.02714 -5.48585 l -2.46594 0.59695 l -5.20559 4.061 a 2.63556 2.63556 0 0 1 -2.09887 0.5081 l -6.47926 -1.23238 l -27.398 -5.21357 Z m 0 0 l 27.398 5.21358 l 8.75042 1.66643 a 3.68877 3.68877 0 0 0 2.938 -0.71124 l 7.02714 -5.48585 l -2.46594 0.59695 l -5.20559 4.061 a 2.63556 2.63556 0 0 1 -2.09887 0.5081 l -6.47926 -1.23238 l -27.398 -5.21357 Z m -89.26313 -12.78685 l 30.916 127.71019 a 3.66655 3.66655 0 0 0 4.42206 2.69835 l 223.76079 -54.16788 a 3.6663 3.6663 0 0 0 2.69835 -4.42206 l -30.916 -127.71018 a 3.6384 3.6384 0 0 0 -2.35767 -2.59508 a 3.59409 3.59409 0 0 0 -1.33406 -0.20075 a 3.45812 3.45812 0 0 0 -1.5141 0.3983 a 3.17906 3.17906 0 0 0 -0.60724 0.37708 l -18.36413 14.33976 l -26.67024 20.83345 l -8.93478 6.97911 l 0.00182 0.00751 l -0.00769 0.00186 l -32.7657 25.578 l -5.41664 4.23905 l -5.20559 4.061 a 2.63556 2.63556 0 0 1 -2.09887 0.5081 l -6.47926 -1.23238 l -27.398 -5.21357 L 690.656 378.79172 L 630.59485 367.362 a 3.59025 3.59025 0 0 0 -1.54741 0.03342 a 3.66988 3.66988 0 0 0 -1.78823 1.03592 a 4.11057 4.11057 0 0 0 -0.49291 0.65091 A 3.64176 3.64176 0 0 0 626.34909 371.81749 Z m 89.26313 12.78685 l 27.398 5.21358 l 8.75042 1.66643 a 3.68877 3.68877 0 0 0 2.938 -0.71124 l 7.02714 -5.48585 l -2.46594 0.59695 l -5.20559 4.061 a 2.63556 2.63556 0 0 1 -2.09887 0.5081 l -6.47926 -1.23238 l -27.398 -5.21357 Z m 0 0 l 27.398 5.21358 l 8.75042 1.66643 a 3.68877 3.68877 0 0 0 2.938 -0.71124 l 7.02714 -5.48585 l -2.46594 0.59695 l -5.20559 4.061 a 2.63556 2.63556 0 0 1 -2.09887 0.5081 l -6.47926 -1.23238 l -27.398 -5.21357 Z m 0 0 l 27.398 5.21358 l 8.75042 1.66643 a 3.68877 3.68877 0 0 0 2.938 -0.71124 l 7.02714 -5.48585 l -2.46594 0.59695 l -5.20559 4.061 a 2.63556 2.63556 0 0 1 -2.09887 0.5081 l -6.47926 -1.23238 l -27.398 -5.21357 Z" stroke-linecap="round" />
</g>
		<g transform="matrix(0.5 0 0 0.5 78.56 -0.39)" id="SvgjsG1008"  >
<path style="stroke: none; stroke-width: 1; stroke-dasharray: none; stroke-linecap: butt; stroke-dashoffset: 0; stroke-linejoin: miter; stroke-miterlimit: 4; fill: rgb(63,61,86); fill-rule: nonzero; opacity: 1;"  transform=" translate(-757.25, -407.73)" d="M 715.61222 384.60434 l 27.398 5.21358 l 8.75042 1.66643 a 3.68877 3.68877 0 0 0 2.938 -0.71124 l 7.02714 -5.48585 l -2.46594 0.59695 l -5.20559 4.061 a 2.63556 2.63556 0 0 1 -2.09887 0.5081 l -6.47926 -1.23238 l -27.398 -5.21357 Z m 81.83767 -28.539 l 0.26672 1.10181 l 1.21521 -0.9448 Z m -81.83767 28.539 l 27.398 5.21358 l 8.75042 1.66643 a 3.68877 3.68877 0 0 0 2.938 -0.71124 l 7.02714 -5.48585 l -2.46594 0.59695 l -5.20559 4.061 a 2.63556 2.63556 0 0 1 -2.09887 0.5081 l -6.47926 -1.23238 l -27.398 -5.21357 Z m 0 0 l 27.398 5.21358 l 8.75042 1.66643 a 3.68877 3.68877 0 0 0 2.938 -0.71124 l 7.02714 -5.48585 l -2.46594 0.59695 l -5.20559 4.061 a 2.63556 2.63556 0 0 1 -2.09887 0.5081 l -6.47926 -1.23238 l -27.398 -5.21357 Z M 627.7849 369.161 l 0.13589 0.102 c 0.02275 -0.03727 0.06233 -0.07063 0.09239 -0.10968 a 2.64256 2.64256 0 0 1 2.38507 -0.76779 l 59.68567 11.354 l 25.5283 4.86479 l 27.398 5.21358 l 8.75042 1.66643 a 3.68877 3.68877 0 0 0 2.938 -0.71124 l 7.02714 -5.48585 l -2.46594 0.59695 l -5.20559 4.061 a 2.63556 2.63556 0 0 1 -2.09887 0.5081 l -6.47926 -1.23238 l -27.398 -5.21357 L 690.656 378.79172 L 630.59485 367.362 a 3.59025 3.59025 0 0 0 -1.54741 0.03342 Z m -1.43581 2.65652 l 30.916 127.71019 a 3.66655 3.66655 0 0 0 4.42206 2.69835 l 223.76079 -54.16788 a 3.6663 3.6663 0 0 0 2.69835 -4.42206 l -30.916 -127.71018 a 3.6384 3.6384 0 0 0 -2.35767 -2.59508 a 3.59409 3.59409 0 0 0 -1.33406 -0.20075 a 3.45812 3.45812 0 0 0 -1.5141 0.3983 a 3.17906 3.17906 0 0 0 -0.60724 0.37708 l -18.36413 14.33976 l -26.67024 20.83345 l -8.93478 6.97911 l 0.00182 0.00751 l -0.00769 0.00186 l -32.7657 25.578 l -5.41664 4.23905 l -5.20559 4.061 a 2.63556 2.63556 0 0 1 -2.09887 0.5081 l -6.47926 -1.23238 l -27.398 -5.21357 L 690.656 378.79172 L 630.59485 367.362 a 3.59025 3.59025 0 0 0 -1.54741 0.03342 a 3.66988 3.66988 0 0 0 -1.78823 1.03592 a 4.11057 4.11057 0 0 0 -0.49291 0.65091 A 3.64176 3.64176 0 0 0 626.34909 371.81749 Z m 1.0196 -0.24682 a 2.59762 2.59762 0 0 1 0.46152 -2.19054 a 0.34094 0.34094 0 0 1 0.09058 -0.11714 c 0.02275 -0.03727 0.06233 -0.07063 0.09239 -0.10968 a 2.64256 2.64256 0 0 1 2.38507 -0.76779 l 59.68567 11.354 l 25.5283 4.86479 l 27.398 5.21358 l 8.75042 1.66643 a 3.68877 3.68877 0 0 0 2.938 -0.71124 l 7.02714 -5.48585 l 4.44395 -3.47195 l 31.54686 -24.64821 l 1.21521 -0.9448 l 7.44662 -5.81748 l 26.5182 -20.70938 l 19.17121 -14.97157 a 2.60368 2.60368 0 0 1 0.98714 -0.477 a 1.99722 1.99722 0 0 1 0.30518 -0.05006 a 1.61549 1.61549 0 0 1 0.27147 -0.026 a 2.67893 2.67893 0 0 1 0.90068 0.14691 a 2.625 2.625 0 0 1 1.68605 1.85318 l 30.916 127.71019 a 2.61952 2.61952 0 0 1 -1.93138 3.16522 L 661.4422 501.21416 a 2.61809 2.61809 0 0 1 -3.1575 -1.93331 Z m 88.24353 13.03367 l 27.398 5.21358 l 8.75042 1.66643 a 3.68877 3.68877 0 0 0 2.938 -0.71124 l 7.02714 -5.48585 l -2.46594 0.59695 l -5.20559 4.061 a 2.63556 2.63556 0 0 1 -2.09887 0.5081 l -6.47926 -1.23238 l -27.398 -5.21357 Z m 0 0 l 27.398 5.21358 l 8.75042 1.66643 a 3.68877 3.68877 0 0 0 2.938 -0.71124 l 7.02714 -5.48585 l -2.46594 0.59695 l -5.20559 4.061 a 2.63556 2.63556 0 0 1 -2.09887 0.5081 l -6.47926 -1.23238 l -27.398 -5.21357 Z m 0 0 l 27.398 5.21358 l 8.75042 1.66643 a 3.68877 3.68877 0 0 0 2.938 -0.71124 l 7.02714 -5.48585 l -2.46594 0.59695 l -5.20559 4.061 a 2.63556 2.63556 0 0 1 -2.09887 0.5081 l -6.47926 -1.23238 l -27.398 -5.21357 Z" stroke-linecap="round" />
</g>
		<g transform="matrix(0.5 0 0 0.5 124.46 4.57)" id="SvgjsG1008"  >
<path style="stroke: none; stroke-width: 1; stroke-dasharray: none; stroke-linecap: butt; stroke-dashoffset: 0; stroke-linejoin: miter; stroke-miterlimit: 4; fill: rgb(4,159,159); fill-rule: nonzero; opacity: 1;"  transform=" translate(-849.13, -417.64)" d="M 827.1291 422.96742 a 8.12818 8.12818 0 0 1 5.98077 -9.80128 l 28.24156 -6.8367 a 8.119 8.119 0 0 1 3.82051 15.78205 l -28.24156 6.8367 A 8.12818 8.12818 0 0 1 827.1291 422.96742 Z" stroke-linecap="round" />
</g>
		<g transform="matrix(0.5 0 0 0.5 -42.45 -8.12)" id="SvgjsG1008"  >
<circle style="stroke: none; stroke-width: 1; stroke-dasharray: none; stroke-linecap: butt; stroke-dashoffset: 0; stroke-linejoin: miter; stroke-miterlimit: 4; fill: rgb(255,255,255); fill-rule: nonzero; opacity: 1;"  cx="0" cy="0" r="7" />
</g>
</g>
</g>
</svg>