<?xml version="1.0" encoding="UTF-8" standalone="no" ?>
<!DOCTYPE svg PUBLIC "-//W3C//DTD SVG 1.1//EN" "http://www.w3.org/Graphics/SVG/1.1/DTD/svg11.dtd">
<svg xmlns="http://www.w3.org/2000/svg" xmlns:xlink="http://www.w3.org/1999/xlink" version="1.1" width="640" height="480" viewBox="0 0 640 480" xml:space="preserve">
<desc>Created with Fabric.js 3.6.3</desc>
<defs>
</defs>
<g transform="matrix(2.11 0 0 2.11 318.79 170.66)"  >
<g style=""   >
		<g transform="matrix(0.26 0 0 0.26 -89.36 -29.46)" id="SvgjsG1008"  >
<circle style="stroke: none; stroke-width: 1; stroke-dasharray: none; stroke-linecap: butt; stroke-dashoffset: 0; stroke-linejoin: miter; stroke-miterlimit: 4; fill: rgb(255,101,132); fill-rule: nonzero; opacity: 1;"  cx="0" cy="0" r="64" />
</g>
		<g transform="matrix(0.26 0 0 0.26 -60.87 14.34)" id="SvgjsG1008"  >
<path style="stroke: none; stroke-width: 1; stroke-dasharray: none; stroke-linecap: butt; stroke-dashoffset: 0; stroke-linejoin: miter; stroke-miterlimit: 4; fill: rgb(212,219,222); fill-rule: nonzero; opacity: 1;"  transform=" translate(-363.16, -334.47)" d="M 563.68016 404.16381 c 0 151.01141 -89.77389 203.73895 -200.51559 203.73895 S 162.649 555.17522 162.649 404.16381 S 363.16457 61.04208 363.16457 61.04208 S 563.68016 253.1524 563.68016 404.16381 Z" stroke-linecap="round" />
</g>
		<g transform="matrix(0.26 0 0 0.26 -61.86 32.04)" id="SvgjsG1008"  >
<polygon style="stroke: none; stroke-width: 1; stroke-dasharray: none; stroke-linecap: butt; stroke-dashoffset: 0; stroke-linejoin: miter; stroke-miterlimit: 4; fill: rgb(63,61,86); fill-rule: nonzero; opacity: 1;"  points="-3.46,181.47 -1.41,55.08 84.05,-101.27 -1.09,35.26 -0.16,-21.57 58.74,-134.69 0.08,-36.61 0.08,-36.61 1.74,-138.81 64.81,-228.87 2,-154.89 3.04,-342.29 -3.48,-94.2 -2.95,-104.43 -67.07,-202.59 -3.97,-84.79 -9.95,29.36 -10.13,26.33 -84.05,-76.97 -10.35,37.03 -11.1,51.31 -11.23,51.52 -11.17,52.7 -26.33,342.29 -6.08,342.29 -3.65,192.71 69.88,78.99 -3.46,181.47 " />
</g>
		<g transform="matrix(0.26 0 0 0.26 101.82 33.49)" id="SvgjsG1008"  >
<path style="stroke: none; stroke-width: 1; stroke-dasharray: none; stroke-linecap: butt; stroke-dashoffset: 0; stroke-linejoin: miter; stroke-miterlimit: 4; fill: rgb(212,219,222); fill-rule: nonzero; opacity: 1;"  transform=" translate(-996.16, -408.97)" d="M 1160.29613 466.01367 c 0 123.61 -73.4842 166.77 -164.13156 166.77 s -164.13156 -43.16 -164.13156 -166.77 S 996.16457 185.15218 996.16457 185.15218 S 1160.29613 342.40364 1160.29613 466.01367 Z" stroke-linecap="round" />
</g>
		<g transform="matrix(0.26 0 0 0.26 101.01 47.98)" id="SvgjsG1008"  >
<polygon style="stroke: none; stroke-width: 1; stroke-dasharray: none; stroke-linecap: butt; stroke-dashoffset: 0; stroke-linejoin: miter; stroke-miterlimit: 4; fill: rgb(63,61,86); fill-rule: nonzero; opacity: 1;"  points="-2.83,148.54 -1.15,45.09 68.8,-82.89 -0.89,28.86 -0.13,-17.65 48.08,-110.25 0.07,-29.96 0.07,-29.96 1.42,-113.63 53.05,-187.34 1.64,-126.78 2.49,-280.18 -2.85,-77.11 -2.41,-85.48 -54.9,-165.83 -3.25,-69.4 -8.14,24.03 -8.29,21.55 -68.8,-63 -8.47,30.31 -9.08,42 -9.19,42.18 -9.14,43.13 -21.55,280.18 -4.97,280.18 -2.98,157.74 57.2,64.66 -2.83,148.54 " />
</g>
		<g transform="matrix(0.26 0 0 0.26 -1.47 118.96)" id="SvgjsG1008"  >
<ellipse style="stroke: none; stroke-width: 1; stroke-dasharray: none; stroke-linecap: butt; stroke-dashoffset: 0; stroke-linejoin: miter; stroke-miterlimit: 4; fill: rgb(63,61,86); fill-rule: nonzero; opacity: 1;"  cx="0" cy="0" rx="554.592" ry="28.034" />
</g>
		<g transform="matrix(0.26 0 0 0.26 85.36 130.86)" id="SvgjsG1008"  >
<ellipse style="stroke: none; stroke-width: 1; stroke-dasharray: none; stroke-linecap: butt; stroke-dashoffset: 0; stroke-linejoin: miter; stroke-miterlimit: 4; fill: rgb(63,61,86); fill-rule: nonzero; opacity: 1;"  cx="0" cy="0" rx="94.989" ry="4.802" />
</g>
		<g transform="matrix(0.26 0 0 0.26 -2.98 142.77)" id="SvgjsG1008"  >
<ellipse style="stroke: none; stroke-width: 1; stroke-dasharray: none; stroke-linecap: butt; stroke-dashoffset: 0; stroke-linejoin: miter; stroke-miterlimit: 4; fill: rgb(63,61,86); fill-rule: nonzero; opacity: 1;"  cx="0" cy="0" rx="94.989" ry="4.802" />
</g>
		<g transform="matrix(0.26 0 0 0.26 -70 132.78)" id="SvgjsG1008"  >
<ellipse style="stroke: none; stroke-width: 1; stroke-dasharray: none; stroke-linecap: butt; stroke-dashoffset: 0; stroke-linejoin: miter; stroke-miterlimit: 4; fill: rgb(63,61,86); fill-rule: nonzero; opacity: 1;"  cx="0" cy="0" rx="217.014" ry="10.97" />
</g>
		<g transform="matrix(0.26 0 0 0.26 -119.05 89.61)" id="SvgjsG1008"  >
<circle style="stroke: none; stroke-width: 1; stroke-dasharray: none; stroke-linecap: butt; stroke-dashoffset: 0; stroke-linejoin: miter; stroke-miterlimit: 4; fill: rgb(47,46,65); fill-rule: nonzero; opacity: 1;"  cx="0" cy="0" r="79" />
</g>
		<g transform="matrix(0.26 0 0 0.26 -125.47 110.99)" id="SvgjsG1008"  >
<rect style="stroke: none; stroke-width: 1; stroke-dasharray: none; stroke-linecap: butt; stroke-dashoffset: 0; stroke-linejoin: miter; stroke-miterlimit: 4; fill: rgb(47,46,65); fill-rule: nonzero; opacity: 1;"  x="-12" y="-21.5" rx="0" ry="0" width="24" height="43" />
</g>
		<g transform="matrix(0.26 0 0 0.26 -113.13 111.14)" id="SvgjsG1008"  >
<rect style="stroke: none; stroke-width: 1; stroke-dasharray: none; stroke-linecap: butt; stroke-dashoffset: 0; stroke-linejoin: miter; stroke-miterlimit: 4; fill: rgb(47,46,65); fill-rule: nonzero; opacity: 1;"  x="-12" y="-21.5" rx="0" ry="0" width="24" height="43" />
</g>
		<g transform="matrix(0 -0.26 0.26 0 -123.48 116.67)" id="SvgjsG1008"  >
<ellipse style="stroke: none; stroke-width: 1; stroke-dasharray: none; stroke-linecap: butt; stroke-dashoffset: 0; stroke-linejoin: miter; stroke-miterlimit: 4; fill: rgb(47,46,65); fill-rule: nonzero; opacity: 1;"  cx="0" cy="0" rx="7.5" ry="20" />
</g>
		<g transform="matrix(0 -0.26 0.26 0 -111.14 116.56)" id="SvgjsG1008"  >
<ellipse style="stroke: none; stroke-width: 1; stroke-dasharray: none; stroke-linecap: butt; stroke-dashoffset: 0; stroke-linejoin: miter; stroke-miterlimit: 4; fill: rgb(47,46,65); fill-rule: nonzero; opacity: 1;"  cx="0" cy="0" rx="7.5" ry="20" />
</g>
		<g transform="matrix(0.26 0 0 0.26 -118.47 84.47)" id="SvgjsG1008"  >
<circle style="stroke: none; stroke-width: 1; stroke-dasharray: none; stroke-linecap: butt; stroke-dashoffset: 0; stroke-linejoin: miter; stroke-miterlimit: 4; fill: rgb(255,255,255); fill-rule: nonzero; opacity: 1;"  cx="0" cy="0" r="27" />
</g>
		<g transform="matrix(0.26 0 0 0.26 -118.47 84.47)" id="SvgjsG1008"  >
<circle style="stroke: none; stroke-width: 1; stroke-dasharray: none; stroke-linecap: butt; stroke-dashoffset: 0; stroke-linejoin: miter; stroke-miterlimit: 4; fill: rgb(63,61,86); fill-rule: nonzero; opacity: 1;"  cx="0" cy="0" r="9" />
</g>
		<g transform="matrix(0.26 0 0 0.26 -123.81 65.34)" id="SvgjsG1008"  >
<path style="stroke: none; stroke-width: 1; stroke-dasharray: none; stroke-linecap: butt; stroke-dashoffset: 0; stroke-linejoin: miter; stroke-miterlimit: 4; fill: rgb(4,159,159); fill-rule: nonzero; opacity: 1;"  transform=" translate(-118.26, -532.89)" d="M 61.02588 552.94636 c -6.04185 -28.64075 14.68758 -57.26483 46.30049 -63.93367 s 62.13813 11.14292 68.18 39.78367 s -14.97834 38.93 -46.59124 45.59886 S 67.06774 581.58712 61.02588 552.94636 Z" stroke-linecap="round" />
</g>
		<g transform="matrix(0.26 0 0 0.26 -106.87 94.4)" id="SvgjsG1008"  >
<path style="stroke: none; stroke-width: 1; stroke-dasharray: none; stroke-linecap: butt; stroke-dashoffset: 0; stroke-linejoin: miter; stroke-miterlimit: 4; fill: rgb(4,159,159); fill-rule: nonzero; opacity: 1;"  transform=" translate(-184.17, -645.97)" d="M 257.29613 671.38411 c 0 55.07585 -32.73985 74.3063 -73.13 74.3063 q -1.40351 0 -2.80255 -0.0312 c -1.87139 -0.04011 -3.72494 -0.1292 -5.55619 -0.254 c -36.45135 -2.57979 -64.77127 -22.79937 -64.77127 -74.02113 c 0 -53.00843 67.73872 -119.89612 72.827 -124.84633 l 0.00892 -0.00889 c 0.19608 -0.19159 0.29409 -0.28516 0.29409 -0.28516 S 257.29613 616.30827 257.29613 671.38411 Z" stroke-linecap="round" />
</g>
		<g transform="matrix(0.26 0 0 0.26 -107.23 94.4)" id="SvgjsG1008"  >
<path style="stroke: none; stroke-width: 1; stroke-dasharray: none; stroke-linecap: butt; stroke-dashoffset: 0; stroke-linejoin: miter; stroke-miterlimit: 4; fill: rgb(63,61,86); fill-rule: nonzero; opacity: 1;"  transform=" translate(-182.76, -645.95)" d="M 181.50168 737.26482 l 26.747 -37.37367 l -26.81386 41.4773 l -0.07125 4.29076 c -1.87139 -0.04011 -3.72494 -0.1292 -5.55619 -0.254 l 2.88282 -55.10258 l -0.0223 -0.42775 l 0.049 -0.0802 l 0.27179 -5.20415 l -26.88076 -41.5798 l 26.96539 37.67668 l 0.06244 1.105 l 2.17874 -41.63324 l -23.0132 -42.96551 l 23.29391 35.6583 l 2.26789 -86.31419 l 0.00892 -0.294 v 0.28516 l -0.37871 68.064 l 22.91079 -26.98321 l -23.00435 32.84678 l -0.60595 37.27566 L 204.18523 621.958 l -21.4805 41.259 l -0.33863 20.723 l 31.05561 -49.79149 l -31.17146 57.023 Z" stroke-linecap="round" />
</g>
		<g transform="matrix(0.26 0 0 0.26 39.11 89.39)" id="SvgjsG1008"  >
<circle style="stroke: none; stroke-width: 1; stroke-dasharray: none; stroke-linecap: butt; stroke-dashoffset: 0; stroke-linejoin: miter; stroke-miterlimit: 4; fill: rgb(47,46,65); fill-rule: nonzero; opacity: 1;"  cx="0" cy="0" r="79" />
</g>
		<g transform="matrix(0.25 -0.08 0.08 0.25 39.52 111.71)" id="SvgjsG1008"  >
<rect style="stroke: none; stroke-width: 1; stroke-dasharray: none; stroke-linecap: butt; stroke-dashoffset: 0; stroke-linejoin: miter; stroke-miterlimit: 4; fill: rgb(47,46,65); fill-rule: nonzero; opacity: 1;"  x="-12" y="-21.5" rx="0" ry="0" width="24" height="43" />
</g>
		<g transform="matrix(0.25 -0.08 0.08 0.25 51.31 108.09)" id="SvgjsG1008"  >
<rect style="stroke: none; stroke-width: 1; stroke-dasharray: none; stroke-linecap: butt; stroke-dashoffset: 0; stroke-linejoin: miter; stroke-miterlimit: 4; fill: rgb(47,46,65); fill-rule: nonzero; opacity: 1;"  x="-12" y="-21.5" rx="0" ry="0" width="24" height="43" />
</g>
		<g transform="matrix(0.25 -0.08 0.08 0.25 43.15 116.51)" id="SvgjsG1008"  >
<ellipse style="stroke: none; stroke-width: 1; stroke-dasharray: none; stroke-linecap: butt; stroke-dashoffset: 0; stroke-linejoin: miter; stroke-miterlimit: 4; fill: rgb(47,46,65); fill-rule: nonzero; opacity: 1;"  cx="0" cy="0" rx="20" ry="7.5" />
</g>
		<g transform="matrix(0.25 -0.08 0.08 0.25 54.86 112.64)" id="SvgjsG1008"  >
<ellipse style="stroke: none; stroke-width: 1; stroke-dasharray: none; stroke-linecap: butt; stroke-dashoffset: 0; stroke-linejoin: miter; stroke-miterlimit: 4; fill: rgb(47,46,65); fill-rule: nonzero; opacity: 1;"  cx="0" cy="0" rx="20" ry="7.5" />
</g>
		<g transform="matrix(0.26 0 0 0.26 38.1 84.32)" id="SvgjsG1008"  >
<circle style="stroke: none; stroke-width: 1; stroke-dasharray: none; stroke-linecap: butt; stroke-dashoffset: 0; stroke-linejoin: miter; stroke-miterlimit: 4; fill: rgb(255,255,255); fill-rule: nonzero; opacity: 1;"  cx="0" cy="0" r="27" />
</g>
		<g transform="matrix(0.26 0 0 0.26 38.1 84.32)" id="SvgjsG1008"  >
<circle style="stroke: none; stroke-width: 1; stroke-dasharray: none; stroke-linecap: butt; stroke-dashoffset: 0; stroke-linejoin: miter; stroke-miterlimit: 4; fill: rgb(63,61,86); fill-rule: nonzero; opacity: 1;"  cx="0" cy="0" r="9" />
</g>
		<g transform="matrix(0.26 0 0 0.26 5.31 85.78)" id="SvgjsG1008"  >
<path style="stroke: none; stroke-width: 1; stroke-dasharray: none; stroke-linecap: butt; stroke-dashoffset: 0; stroke-linejoin: miter; stroke-miterlimit: 4; fill: rgb(4,159,159); fill-rule: nonzero; opacity: 1;"  transform=" translate(-620.68, -612.44)" d="M 657.35526 578.74316 c -14.48957 -25.43323 -3.47841 -59.016 24.59412 -75.0092 s 62.57592 -8.34055 77.06549 17.09268 s -2.39072 41.6435 -30.46325 57.63671 S 671.84483 604.17639 657.35526 578.74316 z M 611.29613 661.29875 c 0 50.55711 -30.05368 68.20979 -67.13 68.20979 q -1.28835 0 -2.57261 -0.02864 c -1.71785 -0.03682 -3.41933 -0.1186 -5.10033 -0.23313 c -33.46068 -2.36813 -59.45707 -20.92878 -59.45707 -67.948 c 0 -48.65932 62.18106 -110.05916 66.85186 -114.60322 l 0.00819 -0.00817 c 0.18 -0.17587 0.27 -0.26177 0.27 -0.26177 S 611.29613 610.74164 611.29613 661.29875 z" stroke-linecap="round" />
</g>
		<g transform="matrix(0.26 0 0 0.26 -14.68 92.34)" id="SvgjsG1008"  >
<path style="stroke: none; stroke-width: 1; stroke-dasharray: none; stroke-linecap: butt; stroke-dashoffset: 0; stroke-linejoin: miter; stroke-miterlimit: 4; fill: rgb(63,61,86); fill-rule: nonzero; opacity: 1;"  transform=" translate(-542.88, -637.95)" d="M 541.72029 721.77424 l 24.55253 -34.30732 l -24.6139 38.07426 l -0.0654 3.93872 c -1.71785 -0.03682 -3.41933 -0.1186 -5.10033 -0.23313 l 2.6463 -50.58165 l -0.02047 -0.39266 l 0.045 -0.07361 l 0.24949 -4.77718 l -24.67531 -38.16836 l 24.753 34.58547 l 0.05731 1.01433 l 2 -38.21741 l -21.12507 -39.44039 L 541.80616 625.928 l 2.08182 -79.23247 l 0.00819 -0.26994 v 0.26177 l -0.34764 62.47962 l 21.031 -24.76934 l -21.11693 30.15184 l -0.55624 34.21735 l 19.63634 -32.839 l -19.71812 37.87389 l -0.31085 19.0228 l 28.50763 -45.70631 l -28.614 52.34448 Z" stroke-linecap="round" />
</g>
		<g transform="matrix(0.26 0 0 0.26 51.96 97.23)" id="SvgjsG1008"  >
<path style="stroke: none; stroke-width: 1; stroke-dasharray: none; stroke-linecap: butt; stroke-dashoffset: 0; stroke-linejoin: miter; stroke-miterlimit: 4; fill: rgb(4,159,159); fill-rule: nonzero; opacity: 1;"  transform=" translate(-802.17, -656.97)" d="M 875.29613 682.38411 c 0 55.07585 -32.73985 74.3063 -73.13 74.3063 q -1.4035 0 -2.80255 -0.0312 c -1.87139 -0.04011 -3.72494 -0.1292 -5.55619 -0.254 c -36.45135 -2.57979 -64.77127 -22.79937 -64.77127 -74.02113 c 0 -53.00843 67.73872 -119.89612 72.827 -124.84633 l 0.00892 -0.00889 c 0.19608 -0.19159 0.29409 -0.28516 0.29409 -0.28516 S 875.29613 627.30827 875.29613 682.38411 Z" stroke-linecap="round" />
</g>
		<g transform="matrix(0.26 0 0 0.26 51.6 97.22)" id="SvgjsG1008"  >
<path style="stroke: none; stroke-width: 1; stroke-dasharray: none; stroke-linecap: butt; stroke-dashoffset: 0; stroke-linejoin: miter; stroke-miterlimit: 4; fill: rgb(63,61,86); fill-rule: nonzero; opacity: 1;"  transform=" translate(-800.76, -656.95)" d="M 799.50168 748.26482 l 26.747 -37.37367 l -26.81386 41.4773 l -0.07125 4.29076 c -1.87139 -0.04011 -3.72494 -0.1292 -5.55619 -0.254 l 2.88282 -55.10258 l -0.0223 -0.42775 l 0.049 -0.0802 l 0.27179 -5.20415 L 770.108 654.01076 l 26.96539 37.67668 l 0.06244 1.105 l 2.17874 -41.63324 l -23.0132 -42.96551 l 23.29391 35.6583 l 2.26789 -86.31419 l 0.00892 -0.294 v 0.28516 l -0.37871 68.064 l 22.91079 -26.98321 l -23.00435 32.84678 l -0.606 37.27566 L 822.18523 632.958 l -21.4805 41.259 l -0.33863 20.723 l 31.05561 -49.79149 l -31.17146 57.023 Z" stroke-linecap="round" />
</g>
		<g transform="matrix(0.11 -0.23 0.23 0.11 31.23 97.19)" id="SvgjsG1008"  >
<ellipse style="stroke: none; stroke-width: 1; stroke-dasharray: none; stroke-linecap: butt; stroke-dashoffset: 0; stroke-linejoin: miter; stroke-miterlimit: 4; fill: rgb(47,46,65); fill-rule: nonzero; opacity: 1;"  cx="0" cy="0" rx="12.4" ry="39.5" />
</g>
		<g transform="matrix(0.1 -0.24 0.24 0.1 -125.29 95.9)" id="SvgjsG1008"  >
<ellipse style="stroke: none; stroke-width: 1; stroke-dasharray: none; stroke-linecap: butt; stroke-dashoffset: 0; stroke-linejoin: miter; stroke-miterlimit: 4; fill: rgb(47,46,65); fill-rule: nonzero; opacity: 1;"  cx="0" cy="0" rx="12.4" ry="39.5" />
</g>
</g>
</g>
</svg>